/* XPM */
static char * urxvt_48x48_xpm[] = {
"48 48 129 2",
"  	c None",
". 	c #EFEBE7",
"+ 	c #E7E3DE",
"@ 	c #7B86A5",
"# 	c #4A5D8C",
"$ 	c #526594",
"% 	c #5A6D9C",
"& 	c #6375A5",
"* 	c #6B82A5",
"= 	c #7386AD",
"- 	c #7B8EB5",
"; 	c #8496BD",
"> 	c #8C9EC6",
", 	c #94A6CE",
"' 	c #9CAED6",
") 	c #A5BAD6",
"! 	c #ADC3DE",
"~ 	c #B5CBE7",
"{ 	c #B5CFEF",
"] 	c #D6D3CE",
"^ 	c #63719C",
"/ 	c #9CA2BD",
"( 	c #293863",
"_ 	c #08246B",
": 	c #103073",
"< 	c #183C84",
"[ 	c #29498C",
"} 	c #395594",
"| 	c #42619C",
"1 	c #4A69AD",
"2 	c #5A75B5",
"3 	c #6386BD",
"4 	c #7392C6",
"5 	c #7B9ED6",
"6 	c #8CAADE",
"7 	c #94B6E7",
"8 	c #A5C7EF",
"9 	c #C6DFFF",
"0 	c #9C9A9C",
"a 	c #EFEBEF",
"b 	c #D6CFCE",
"c 	c #849EBD",
"d 	c #8492A5",
"e 	c #4241EF",
"f 	c #29384A",
"g 	c #213C84",
"h 	c #5A79B5",
"i 	c #849ED6",
"j 	c #9CB6E7",
"k 	c #8C8684",
"l 	c #737573",
"m 	c #424542",
"n 	c #A5A6A5",
"o 	c #BDBAB5",
"p 	c #B5AEAD",
"q 	c #E7E3E7",
"r 	c #8C8E8C",
"s 	c #212021",
"t 	c #000000",
"u 	c #C6C7C6",
"v 	c #B5BAD6",
"w 	c #CED3E7",
"x 	c #7386B5",
"y 	c #7B92BD",
"z 	c #294584",
"A 	c #395194",
"B 	c #292C29",
"C 	c #525D73",
"D 	c #6B6D6B",
"E 	c #212842",
"F 	c #A5C3E7",
"G 	c #7B8694",
"H 	c #737D8C",
"I 	c #8CAECE",
"J 	c #B5B6C6",
"K 	c #9CA6BD",
"L 	c #A5AAC6",
"M 	c #A5AEC6",
"N 	c #ADB6CE",
"O 	c #ADBACE",
"P 	c #B5BACE",
"Q 	c #B5BED6",
"R 	c #BDC3D6",
"S 	c #BDC7D6",
"T 	c #C6CFDE",
"U 	c #C6D3DE",
"V 	c #CED7E7",
"W 	c #CEDBE7",
"X 	c #D6DFEF",
"Y 	c #9CA6B5",
"Z 	c #A5AEBD",
"` 	c #F7F3EF",
" .	c #FFFFFF",
"..	c #CEC7CE",
"+.	c #848284",
"@.	c #8C8A8C",
"#.	c #DEDBDE",
"$.	c #949294",
"%.	c #525552",
"&.	c #ADAAAD",
"*.	c #DED7DE",
"=.	c #B5B2B5",
"-.	c #7B7D7B",
";.	c #737173",
">.	c #D6D7D6",
",.	c #181C18",
"'.	c #393839",
").	c #949694",
"!.	c #7B757B",
"~.	c #CECBCE",
"{.	c #292829",
"].	c #BDBEBD",
"^.	c #C6C7FF",
"/.	c #ADAAFF",
"(.	c #B5AEB5",
"_.	c #D6D3D6",
":.	c #3938FF",
"<.	c #5255FF",
"[.	c #181CFF",
"}.	c #8C8EFF",
"|.	c #E7E3FF",
"1.	c #A5A2A5",
"2.	c #D6CFD6",
"3.	c #C6BEC6",
"4.	c #8C868C",
"5.	c #7B797B",
"6.	c #B5B6B5",
"7.	c #9C969C",
"8.	c #CECFCE",
"                                                                                                ",
"                                                                                                ",
"                                                                                                ",
"                                                                                                ",
". . . . . . . . . . . . . . . . . . . . . . . . . . . . . . . . . . . . . . . . . . . . . . . . ",
"+ @ # # # # # # # # $ % & * = - ; > , ' ) ! ~ { { { { { { { { { { { { { { { { { { { { { { { { ] ",
"+ # ^ / / / / / ( _ : < [ } | 1 2 3 4 5 6 7 8 9 + + + + + + 0 a + + + + + b c a + + + + + b c ] ",
"+ # d e e e e e f _ : g [ } | 1 h 3 4 i 6 j 8 9 ] ] ] ] ] ] k + l m m m n o c + ] n ] p o o c ] ",
"+ # d q q q q q f _ : g [ } | 1 2 3 4 5 6 j 8 9 ] ] ] ] ] ] k + r ] ] ] r o c + ] s r t p o c ] ",
"+ # d u u u u u f _ v w x y | 1 2 3 4 5 6 7 8 9 ] ] ] ] ] ] k + r ] ] ] r o c + ] n t r ] o c ] ",
"+ # d u u u u u f _ z A x } | 1 h 3 4 i 6 j 8 9 ] o r r o ] k + r ] ] ] r o c + ] B n s n o c ] ",
"+ # C D D D D D E _ : < [ } | 1 2 3 4 5 6 7 8 9 ] o r r o ] k + n r r r o o c + ] ] ] ] ] o c ] ",
"+ # _ _ _ _ _ _ _ _ : g [ } | 1 h 3 4 i 6 j 8 F G G G G G G H d G G G G G G I d G G G G G G I ] ",
"+ J K K K K K K K K L M N O P Q R S T U V W X X X X X X X X X X X X X X X X X X X T Y Y Y Y Z ] ",
"+ `  . . . . . . . . . . . . . . . . . . . . . . . . . . . . . . . . . . . . . . ...l +.@.+...] ",
"+ `  . . . . . . . . . . . . . . . . . . . . . . . . . . . . . . . . . . . . . . ...+.#.$.r #.] ",
"+ `  . . . . . . . . . . . . . . . . . . . . . . . . .%.&. . . . . . . . . . . . ...r *.=.-.#.] ",
"+ `  .u %.q ;.%.r  .&.;. . . .r &.q ;. . . . .%.>.u %.,.'.%.%.u  . . . . . . . . ...r ).).!.~.] ",
"+ `  .&.t {.%.%.%. . .{.-. .].t  . .t >. . .>.{. .>.-.{.%.-.-.>. . . . . . . . . ...+.).).).#.] ",
"+ `  .&.t &. .u r  . .u ,.u {.r  . .;.;. . .;.r  . . .%.&. . . . . . . . . . . . ...+.).).).#.] ",
"+ `  .&.t  . . . . . . .r t %. . . .q ,. .q t  . . . .%.&. . . . . . . . . . . . ...+.).).).#.] ",
"+ `  .&.t  . . . . . . .'.'.{.q  . . .'.r ;.;. . . . .%.&. . . . . . . . . . . . ...+.).).).#.] ",
"+ `  .&.t  . . . . . .;.%. .%.'. . . .u '.,.q  . . . .%.;. . . . . . . . . . . . ...+.).).).#.] ",
"+ `  .&.t  . . . . .&.,. . . .%.%. . . .,.;. . . . . .u ,.t t &. . . . . . . . . ...+.).).).#.] ",
"+ `  . . . . . . . . . . . . . . . . . . . . . . . . . . . . . . . . . . . . . . ...+.).).).#.] ",
"+ `  . . . . . . . . . . . . . . . . . . . . . . . . . . . . . . . . . . . . . . ...+.).).).#.] ",
"+ `  . . . . . . . . . . . . . . . . . . . . . . .&.&.&.&.&.&.&.q  . . . . . . . ...+.).).).#.] ",
"+ `  . . . . . . . . . . . . . . . . . . . . . . .t t t t t t t &. . . . . . . . ...+.).).).#.] ",
"+ `  . . . . . . . . . . . . . . . . . . . . . . .t t t t t t t &. . . . . . . . ...+.).).).#.] ",
"+ `  . . . . . . . . . . . . . . . . . . . . . . .t t t t t t t &. . . . . . . . ...+.).).).#.] ",
"+ `  . . . . . . . .;.r  . . . . . . . . . . . . .t t t t t t t &. . . . . . . . ...+.).).).#.] ",
"+ `  .^./. . . . . .q ;.,.&. . . . . . . . . . . .t t t t t t t &. . . . . . . . ...(.#.#._.*.] ",
"+ ` ^.:.<.[.^. .}./. . .q %.{.r  . . . . . . . . .t t t t t t t &. . . . . . . . .....=.=.)...] ",
"+ ` <.|. .^.[.<.:. . . . .u {.'.u  . . . . . . . .t t t t t t t &. . . . . . . . .....=.=.)...] ",
"+ `  . . . . ./.|. . .u '.%.>. . . . . . . . . . .t t t t t t t &. . . . . . . . .....=.=.)...] ",
"+ `  . . . . . . . .;.'.u  . . . . . . . . . . . .t t t t t t t &. . . . . . . . .....=.=.)...] ",
"+ `  . . . . . . . .q  . . . . . . . . . . . . . .t t t t t t t &. . . . . . . . .....=.=.)...] ",
"+ `  . . . . . . . . . . . . . . . . . . . . . . .t t t t t t t &. . . . . . . . ...1.!.!.!.2.] ",
"+ `  . . . . . . . . . . . . . . . . . . . . . . .t t t t t t t &. . . . . . . . ...1.~.~.~.2.] ",
"+ `  . . . . . . . . . . . . . . . . . . . . . . .&.&.&.&.&.&.&.q  . . . . . . . ...(.3.=.4.#.] ",
"+ `  . . . . . . . . . . . . . . . . . . . . . . . . . . . . . . . . . . . . . . ...+.q &.5.#.] ",
"+ `  . . . . . . . . . . . . . . . . . . . . . . . . . . . . . . . . . . . . . . ...+.6.7.).#.] ",
"+ `  . . . . . . . . . . . . . . . . . . . . . . . . . . . . . . . . . . . . . . .8...#.~.#.#.] ",
"~.o o o o o o o o o o o o o o o o o o o o o o o o o o o o o o o o o o o o o o o o o o o o o o o ",
"                                                                                                ",
"                                                                                                ",
"                                                                                                ",
"                                                                                                "};
