STARTFONT 2.1
FONT -artwiz-lime-medium-r-normal--10-110-75-75-m-50-ISO8859-1
SIZE 10 75 75
FONTBOUNDINGBOX 5 10 0 -2

STARTPROPERTIES 25
FONTNAME_REGISTRY ""
FOUNDRY "artwiz"
FAMILY_NAME "lime"
WEIGHT_NAME "medium"
SLANT "r"
SETWIDTH_NAME "normal"
ADD_STYLE_NAME ""
PIXEL_SIZE 10
POINT_SIZE 110
RESOLUTION_X 75
RESOLUTION_Y 75
SPACING "m"
AVERAGE_WIDTH 50
CHARSET_REGISTRY "ISO8859"
CHARSET_ENCODING "1"
COPYRIGHT "artwiz, fixed by aleczapka"
FACE_NAME "lime"
WEIGHT 10
X_HEIGHT 6
QUAD_WIDTH 7
_XMBDFED_INFO "Edited with xmbdfed 4.5."
_ORIGINAL_FONT_NAME "lime"
DEFAULT_CHAR 52
FONT_DESCENT 2
FONT_ASCENT 8
ENDPROPERTIES

CHARS 208

STARTCHAR char0
ENCODING 0
SWIDTH 480 0
DWIDTH 5 0
BBX 5 10 0 -2
BITMAP
00
00
00
00
00
00
00
00
00
00
ENDCHAR

STARTCHAR char1
ENCODING 1
SWIDTH 480 0
DWIDTH 5 0
BBX 5 10 0 -2
BITMAP
00
00
00
30
48
48
78
48
00
00
ENDCHAR

STARTCHAR char2
ENCODING 2
SWIDTH 480 0
DWIDTH 5 0
BBX 5 10 0 -2
BITMAP
00
00
00
70
48
70
48
70
00
00
ENDCHAR

STARTCHAR char3
ENCODING 3
SWIDTH 480 0
DWIDTH 5 0
BBX 5 10 0 -2
BITMAP
00
00
00
38
40
40
40
38
00
00
ENDCHAR

STARTCHAR char4
ENCODING 4
SWIDTH 480 0
DWIDTH 5 0
BBX 5 10 0 -2
BITMAP
00
00
00
70
48
48
48
70
00
00
ENDCHAR

STARTCHAR char5
ENCODING 5
SWIDTH 480 0
DWIDTH 5 0
BBX 5 10 0 -2
BITMAP
00
00
00
78
40
70
40
78
00
00
ENDCHAR

STARTCHAR char6
ENCODING 6
SWIDTH 480 0
DWIDTH 5 0
BBX 5 10 0 -2
BITMAP
00
00
00
78
40
70
40
40
00
00
ENDCHAR

STARTCHAR char7
ENCODING 7
SWIDTH 480 0
DWIDTH 5 0
BBX 5 10 0 -2
BITMAP
00
00
00
38
40
58
48
38
00
00
ENDCHAR

STARTCHAR char8
ENCODING 8
SWIDTH 480 0
DWIDTH 5 0
BBX 5 10 0 -2
BITMAP
00
00
00
48
48
78
48
48
00
00
ENDCHAR

STARTCHAR char9
ENCODING 9
SWIDTH 480 0
DWIDTH 5 0
BBX 5 10 0 -2
BITMAP
00
00
00
70
20
20
20
70
00
00
ENDCHAR

STARTCHAR char10
ENCODING 10
SWIDTH 480 0
DWIDTH 5 0
BBX 5 10 0 -2
BITMAP
00
00
00
18
08
08
48
30
00
00
ENDCHAR

STARTCHAR char11
ENCODING 11
SWIDTH 480 0
DWIDTH 5 0
BBX 5 10 0 -2
BITMAP
00
00
00
48
50
60
50
48
00
00
ENDCHAR

STARTCHAR char12
ENCODING 12
SWIDTH 480 0
DWIDTH 5 0
BBX 5 10 0 -2
BITMAP
00
00
00
40
40
40
40
78
00
00
ENDCHAR

STARTCHAR char13
ENCODING 13
SWIDTH 480 0
DWIDTH 5 0
BBX 5 10 0 -2
BITMAP
00
00
00
48
78
78
48
48
00
00
ENDCHAR

STARTCHAR char14
ENCODING 14
SWIDTH 480 0
DWIDTH 5 0
BBX 5 10 0 -2
BITMAP
00
00
00
48
68
58
48
48
00
00
ENDCHAR

STARTCHAR char15
ENCODING 15
SWIDTH 480 0
DWIDTH 5 0
BBX 5 10 0 -2
BITMAP
00
00
00
30
48
48
48
30
00
00
ENDCHAR

STARTCHAR char16
ENCODING 16
SWIDTH 480 0
DWIDTH 5 0
BBX 5 10 0 -2
BITMAP
00
00
00
70
48
70
40
40
00
00
ENDCHAR

STARTCHAR char17
ENCODING 17
SWIDTH 480 0
DWIDTH 5 0
BBX 5 10 0 -2
BITMAP
00
00
00
30
48
48
48
30
18
00
ENDCHAR

STARTCHAR char18
ENCODING 18
SWIDTH 480 0
DWIDTH 5 0
BBX 5 10 0 -2
BITMAP
00
00
00
70
48
70
50
48
00
00
ENDCHAR

STARTCHAR char19
ENCODING 19
SWIDTH 480 0
DWIDTH 5 0
BBX 5 10 0 -2
BITMAP
00
00
00
38
40
30
08
70
00
00
ENDCHAR

STARTCHAR char20
ENCODING 20
SWIDTH 480 0
DWIDTH 5 0
BBX 5 10 0 -2
BITMAP
00
00
00
F8
20
20
20
20
00
00
ENDCHAR

STARTCHAR char21
ENCODING 21
SWIDTH 480 0
DWIDTH 5 0
BBX 5 10 0 -2
BITMAP
00
00
00
48
48
48
48
30
00
00
ENDCHAR

STARTCHAR char22
ENCODING 22
SWIDTH 480 0
DWIDTH 5 0
BBX 5 10 0 -2
BITMAP
00
00
00
48
48
48
30
30
00
00
ENDCHAR

STARTCHAR char23
ENCODING 23
SWIDTH 480 0
DWIDTH 5 0
BBX 5 10 0 -2
BITMAP
00
00
00
48
48
78
78
48
00
00
ENDCHAR

STARTCHAR char24
ENCODING 24
SWIDTH 480 0
DWIDTH 5 0
BBX 5 10 0 -2
BITMAP
00
00
00
48
48
30
48
48
00
00
ENDCHAR

STARTCHAR char25
ENCODING 25
SWIDTH 480 0
DWIDTH 5 0
BBX 5 10 0 -2
BITMAP
00
00
00
88
50
20
20
20
00
00
ENDCHAR

STARTCHAR char26
ENCODING 26
SWIDTH 480 0
DWIDTH 5 0
BBX 5 10 0 -2
BITMAP
00
00
00
78
10
20
40
78
00
00
ENDCHAR

STARTCHAR char27
ENCODING 27
SWIDTH 480 0
DWIDTH 5 0
BBX 5 10 0 -2
BITMAP
00
00
00
00
00
00
00
00
00
00
ENDCHAR

STARTCHAR char28
ENCODING 28
SWIDTH 480 0
DWIDTH 5 0
BBX 5 10 0 -2
BITMAP
00
00
00
00
00
00
00
00
00
00
ENDCHAR

STARTCHAR char29
ENCODING 29
SWIDTH 480 0
DWIDTH 5 0
BBX 5 10 0 -2
BITMAP
00
00
00
00
00
00
00
00
00
00
ENDCHAR

STARTCHAR char30
ENCODING 30
SWIDTH 480 0
DWIDTH 5 0
BBX 5 10 0 -2
BITMAP
00
00
00
00
00
00
00
00
00
00
ENDCHAR

STARTCHAR char31
ENCODING 31
SWIDTH 480 0
DWIDTH 5 0
BBX 5 10 0 -2
BITMAP
00
00
00
00
00
00
00
00
00
00
ENDCHAR

STARTCHAR char32
ENCODING 32
SWIDTH 480 0
DWIDTH 5 0
BBX 5 10 0 -2
BITMAP
00
00
00
00
00
00
00
00
00
00
ENDCHAR

STARTCHAR char33
ENCODING 33
SWIDTH 480 0
DWIDTH 5 0
BBX 5 10 0 -2
BITMAP
00
00
20
20
20
20
00
20
00
00
ENDCHAR

STARTCHAR char34
ENCODING 34
SWIDTH 480 0
DWIDTH 5 0
BBX 5 10 0 -2
BITMAP
00
50
50
50
00
00
00
00
00
00
ENDCHAR

STARTCHAR char35
ENCODING 35
SWIDTH 480 0
DWIDTH 5 0
BBX 5 10 0 -2
BITMAP
00
00
00
50
D8
50
D8
50
00
00
ENDCHAR

STARTCHAR char36
ENCODING 36
SWIDTH 480 0
DWIDTH 5 0
BBX 5 10 0 -2
BITMAP
00
20
78
A0
70
28
F0
20
00
00
ENDCHAR

STARTCHAR char37
ENCODING 37
SWIDTH 480 0
DWIDTH 5 0
BBX 5 10 0 -2
BITMAP
00
00
40
48
10
20
48
08
00
00
ENDCHAR

STARTCHAR char38
ENCODING 38
SWIDTH 480 0
DWIDTH 5 0
BBX 5 10 0 -2
BITMAP
00
00
40
A0
40
A8
90
68
00
00
ENDCHAR

STARTCHAR char39
ENCODING 39
SWIDTH 480 0
DWIDTH 5 0
BBX 5 10 0 -2
BITMAP
00
20
20
40
00
00
00
00
00
00
ENDCHAR

STARTCHAR char40
ENCODING 40
SWIDTH 480 0
DWIDTH 5 0
BBX 5 10 0 -2
BITMAP
00
10
20
20
20
20
20
20
10
00
ENDCHAR

STARTCHAR char41
ENCODING 41
SWIDTH 480 0
DWIDTH 5 0
BBX 5 10 0 -2
BITMAP
00
20
10
10
10
10
10
10
20
00
ENDCHAR

STARTCHAR char42
ENCODING 42
SWIDTH 480 0
DWIDTH 5 0
BBX 5 10 0 -2
BITMAP
00
00
00
48
30
78
30
48
00
00
ENDCHAR

STARTCHAR char43
ENCODING 43
SWIDTH 480 0
DWIDTH 5 0
BBX 5 10 0 -2
BITMAP
00
00
20
20
F8
20
20
00
00
00
ENDCHAR

STARTCHAR char44
ENCODING 44
SWIDTH 480 0
DWIDTH 5 0
BBX 5 10 0 -2
BITMAP
00
00
00
00
00
00
20
20
40
00
ENDCHAR

STARTCHAR char45
ENCODING 45
SWIDTH 480 0
DWIDTH 5 0
BBX 5 10 0 -2
BITMAP
00
00
00
00
78
00
00
00
00
00
ENDCHAR

STARTCHAR char46
ENCODING 46
SWIDTH 480 0
DWIDTH 5 0
BBX 5 10 0 -2
BITMAP
00
00
00
00
00
00
20
20
00
00
ENDCHAR

STARTCHAR char47
ENCODING 47
SWIDTH 480 0
DWIDTH 5 0
BBX 5 10 0 -2
BITMAP
00
08
08
10
10
20
20
40
40
00
ENDCHAR

STARTCHAR char48
ENCODING 48
SWIDTH 480 0
DWIDTH 5 0
BBX 5 10 0 -2
BITMAP
00
00
30
48
58
68
48
30
00
00
ENDCHAR

STARTCHAR char49
ENCODING 49
SWIDTH 480 0
DWIDTH 5 0
BBX 5 10 0 -2
BITMAP
00
00
20
60
20
20
20
20
00
00
ENDCHAR

STARTCHAR char50
ENCODING 50
SWIDTH 480 0
DWIDTH 5 0
BBX 5 10 0 -2
BITMAP
00
00
70
08
08
30
40
78
00
00
ENDCHAR

STARTCHAR char51
ENCODING 51
SWIDTH 480 0
DWIDTH 5 0
BBX 5 10 0 -2
BITMAP
00
00
70
08
30
08
08
70
00
00
ENDCHAR

STARTCHAR char52
ENCODING 52
SWIDTH 480 0
DWIDTH 5 0
BBX 5 10 0 -2
BITMAP
00
00
48
48
48
38
08
08
00
00
ENDCHAR

STARTCHAR char53
ENCODING 53
SWIDTH 480 0
DWIDTH 5 0
BBX 5 10 0 -2
BITMAP
00
00
78
40
70
08
08
70
00
00
ENDCHAR

STARTCHAR char54
ENCODING 54
SWIDTH 480 0
DWIDTH 5 0
BBX 5 10 0 -2
BITMAP
00
00
30
40
70
48
48
30
00
00
ENDCHAR

STARTCHAR char55
ENCODING 55
SWIDTH 480 0
DWIDTH 5 0
BBX 5 10 0 -2
BITMAP
00
00
78
08
10
10
20
20
00
00
ENDCHAR

STARTCHAR char56
ENCODING 56
SWIDTH 480 0
DWIDTH 5 0
BBX 5 10 0 -2
BITMAP
00
00
30
48
30
48
48
30
00
00
ENDCHAR

STARTCHAR char57
ENCODING 57
SWIDTH 480 0
DWIDTH 5 0
BBX 5 10 0 -2
BITMAP
00
00
30
48
48
38
08
30
00
00
ENDCHAR

STARTCHAR char58
ENCODING 58
SWIDTH 480 0
DWIDTH 5 0
BBX 5 10 0 -2
BITMAP
00
00
00
20
20
00
20
20
00
00
ENDCHAR

STARTCHAR char59
ENCODING 59
SWIDTH 480 0
DWIDTH 5 0
BBX 5 10 0 -2
BITMAP
00
00
00
20
20
00
20
20
40
00
ENDCHAR

STARTCHAR char60
ENCODING 60
SWIDTH 480 0
DWIDTH 5 0
BBX 5 10 0 -2
BITMAP
00
08
10
20
40
20
10
08
00
00
ENDCHAR

STARTCHAR char61
ENCODING 61
SWIDTH 480 0
DWIDTH 5 0
BBX 5 10 0 -2
BITMAP
00
00
00
78
00
78
00
00
00
00
ENDCHAR

STARTCHAR char62
ENCODING 62
SWIDTH 480 0
DWIDTH 5 0
BBX 5 10 0 -2
BITMAP
00
40
20
10
08
10
20
40
00
00
ENDCHAR

STARTCHAR char63
ENCODING 63
SWIDTH 480 0
DWIDTH 5 0
BBX 5 10 0 -2
BITMAP
00
00
70
08
10
20
00
20
00
00
ENDCHAR

STARTCHAR char64
ENCODING 64
SWIDTH 480 0
DWIDTH 5 0
BBX 5 10 0 -2
BITMAP
00
00
30
48
58
58
40
30
00
00
ENDCHAR

STARTCHAR char65
ENCODING 65
SWIDTH 480 0
DWIDTH 5 0
BBX 5 10 0 -2
BITMAP
00
00
30
48
48
78
48
48
00
00
ENDCHAR

STARTCHAR char66
ENCODING 66
SWIDTH 480 0
DWIDTH 5 0
BBX 5 10 0 -2
BITMAP
00
00
70
48
70
48
48
70
00
00
ENDCHAR

STARTCHAR char67
ENCODING 67
SWIDTH 480 0
DWIDTH 5 0
BBX 5 10 0 -2
BITMAP
00
00
38
40
40
40
40
38
00
00
ENDCHAR

STARTCHAR char68
ENCODING 68
SWIDTH 480 0
DWIDTH 5 0
BBX 5 10 0 -2
BITMAP
00
00
70
48
48
48
48
70
00
00
ENDCHAR

STARTCHAR char69
ENCODING 69
SWIDTH 480 0
DWIDTH 5 0
BBX 5 10 0 -2
BITMAP
00
00
78
40
70
40
40
78
00
00
ENDCHAR

STARTCHAR char70
ENCODING 70
SWIDTH 480 0
DWIDTH 5 0
BBX 5 10 0 -2
BITMAP
00
00
78
40
70
40
40
40
00
00
ENDCHAR

STARTCHAR char71
ENCODING 71
SWIDTH 480 0
DWIDTH 5 0
BBX 5 10 0 -2
BITMAP
00
00
30
40
58
48
48
30
00
00
ENDCHAR

STARTCHAR char72
ENCODING 72
SWIDTH 480 0
DWIDTH 5 0
BBX 5 10 0 -2
BITMAP
00
00
48
48
78
48
48
48
00
00
ENDCHAR

STARTCHAR char73
ENCODING 73
SWIDTH 480 0
DWIDTH 5 0
BBX 5 10 0 -2
BITMAP
00
00
70
20
20
20
20
70
00
00
ENDCHAR

STARTCHAR char74
ENCODING 74
SWIDTH 480 0
DWIDTH 5 0
BBX 5 10 0 -2
BITMAP
00
00
38
08
08
08
48
30
00
00
ENDCHAR

STARTCHAR char75
ENCODING 75
SWIDTH 480 0
DWIDTH 5 0
BBX 5 10 0 -2
BITMAP
00
00
48
50
60
50
48
48
00
00
ENDCHAR

STARTCHAR char76
ENCODING 76
SWIDTH 480 0
DWIDTH 5 0
BBX 5 10 0 -2
BITMAP
00
00
40
40
40
40
40
78
00
00
ENDCHAR

STARTCHAR char77
ENCODING 77
SWIDTH 480 0
DWIDTH 5 0
BBX 5 10 0 -2
BITMAP
00
00
48
78
58
48
48
48
00
00
ENDCHAR

STARTCHAR char78
ENCODING 78
SWIDTH 480 0
DWIDTH 5 0
BBX 5 10 0 -2
BITMAP
00
00
70
48
48
48
48
48
00
00
ENDCHAR

STARTCHAR char79
ENCODING 79
SWIDTH 480 0
DWIDTH 5 0
BBX 5 10 0 -2
BITMAP
00
00
30
48
48
48
48
30
00
00
ENDCHAR

STARTCHAR char80
ENCODING 80
SWIDTH 480 0
DWIDTH 5 0
BBX 5 10 0 -2
BITMAP
00
00
70
48
48
70
40
40
00
00
ENDCHAR

STARTCHAR char81
ENCODING 81
SWIDTH 480 0
DWIDTH 5 0
BBX 5 10 0 -2
BITMAP
00
00
30
48
48
48
48
30
18
00
ENDCHAR

STARTCHAR char82
ENCODING 82
SWIDTH 480 0
DWIDTH 5 0
BBX 5 10 0 -2
BITMAP
00
00
70
48
48
70
48
48
00
00
ENDCHAR

STARTCHAR char83
ENCODING 83
SWIDTH 480 0
DWIDTH 5 0
BBX 5 10 0 -2
BITMAP
00
00
38
40
30
08
08
70
00
00
ENDCHAR

STARTCHAR char84
ENCODING 84
SWIDTH 480 0
DWIDTH 5 0
BBX 5 10 0 -2
BITMAP
00
00
F8
20
20
20
20
20
00
00
ENDCHAR

STARTCHAR char85
ENCODING 85
SWIDTH 480 0
DWIDTH 5 0
BBX 5 10 0 -2
BITMAP
00
00
48
48
48
48
48
38
00
00
ENDCHAR

STARTCHAR char86
ENCODING 86
SWIDTH 480 0
DWIDTH 5 0
BBX 5 10 0 -2
BITMAP
00
00
48
48
48
48
30
30
00
00
ENDCHAR

STARTCHAR char87
ENCODING 87
SWIDTH 480 0
DWIDTH 5 0
BBX 5 10 0 -2
BITMAP
00
00
48
48
48
58
78
48
00
00
ENDCHAR

STARTCHAR char88
ENCODING 88
SWIDTH 480 0
DWIDTH 5 0
BBX 5 10 0 -2
BITMAP
00
00
48
48
30
48
48
48
00
00
ENDCHAR

STARTCHAR char89
ENCODING 89
SWIDTH 480 0
DWIDTH 5 0
BBX 5 10 0 -2
BITMAP
00
00
88
50
20
20
20
20
00
00
ENDCHAR

STARTCHAR char90
ENCODING 90
SWIDTH 480 0
DWIDTH 5 0
BBX 5 10 0 -2
BITMAP
00
00
78
08
10
20
40
78
00
00
ENDCHAR

STARTCHAR char91
ENCODING 91
SWIDTH 480 0
DWIDTH 5 0
BBX 5 10 0 -2
BITMAP
00
70
40
40
40
40
40
40
70
00
ENDCHAR

STARTCHAR char92
ENCODING 92
SWIDTH 480 0
DWIDTH 5 0
BBX 5 10 0 -2
BITMAP
00
40
40
20
20
10
10
08
08
00
ENDCHAR

STARTCHAR char93
ENCODING 93
SWIDTH 480 0
DWIDTH 5 0
BBX 5 10 0 -2
BITMAP
00
70
10
10
10
10
10
10
70
00
ENDCHAR

STARTCHAR char94
ENCODING 94
SWIDTH 480 0
DWIDTH 5 0
BBX 5 10 0 -2
BITMAP
00
20
50
88
00
00
00
00
00
00
ENDCHAR

STARTCHAR char95
ENCODING 95
SWIDTH 480 0
DWIDTH 5 0
BBX 5 10 0 -2
BITMAP
00
00
00
00
00
00
00
00
78
00
ENDCHAR

STARTCHAR char96
ENCODING 96
SWIDTH 480 0
DWIDTH 5 0
BBX 5 10 0 -2
BITMAP
00
20
20
10
00
00
00
00
00
00
ENDCHAR

STARTCHAR char97
ENCODING 97
SWIDTH 480 0
DWIDTH 5 0
BBX 5 10 0 -2
BITMAP
00
00
00
38
48
48
58
28
00
00
ENDCHAR

STARTCHAR char98
ENCODING 98
SWIDTH 480 0
DWIDTH 5 0
BBX 5 10 0 -2
BITMAP
00
40
40
70
48
48
48
70
00
00
ENDCHAR

STARTCHAR char99
ENCODING 99
SWIDTH 480 0
DWIDTH 5 0
BBX 5 10 0 -2
BITMAP
00
00
00
38
40
40
40
38
00
00
ENDCHAR

STARTCHAR char100
ENCODING 100
SWIDTH 480 0
DWIDTH 5 0
BBX 5 10 0 -2
BITMAP
00
08
08
38
48
48
48
38
00
00
ENDCHAR

STARTCHAR char101
ENCODING 101
SWIDTH 480 0
DWIDTH 5 0
BBX 5 10 0 -2
BITMAP
00
00
00
30
48
78
40
38
00
00
ENDCHAR

STARTCHAR char102
ENCODING 102
SWIDTH 480 0
DWIDTH 5 0
BBX 5 10 0 -2
BITMAP
00
10
20
70
20
20
20
20
00
00
ENDCHAR

STARTCHAR char103
ENCODING 103
SWIDTH 480 0
DWIDTH 5 0
BBX 5 10 0 -2
BITMAP
00
00
00
38
48
48
48
38
08
30
ENDCHAR

STARTCHAR char104
ENCODING 104
SWIDTH 480 0
DWIDTH 5 0
BBX 5 10 0 -2
BITMAP
00
40
40
70
48
48
48
48
00
00
ENDCHAR

STARTCHAR char105
ENCODING 105
SWIDTH 480 0
DWIDTH 5 0
BBX 5 10 0 -2
BITMAP
00
10
00
10
10
10
10
10
00
00
ENDCHAR

STARTCHAR char106
ENCODING 106
SWIDTH 480 0
DWIDTH 5 0
BBX 5 10 0 -2
BITMAP
00
10
00
10
10
10
10
10
10
60
ENDCHAR

STARTCHAR char107
ENCODING 107
SWIDTH 480 0
DWIDTH 5 0
BBX 5 10 0 -2
BITMAP
00
40
40
48
50
60
50
48
00
00
ENDCHAR

STARTCHAR char108
ENCODING 108
SWIDTH 480 0
DWIDTH 5 0
BBX 5 10 0 -2
BITMAP
00
10
10
10
10
10
10
10
00
00
ENDCHAR

STARTCHAR char109
ENCODING 109
SWIDTH 480 0
DWIDTH 5 0
BBX 5 10 0 -2
BITMAP
00
00
00
48
78
58
48
48
00
00
ENDCHAR

STARTCHAR char110
ENCODING 110
SWIDTH 480 0
DWIDTH 5 0
BBX 5 10 0 -2
BITMAP
00
00
00
70
48
48
48
48
00
00
ENDCHAR

STARTCHAR char111
ENCODING 111
SWIDTH 480 0
DWIDTH 5 0
BBX 5 10 0 -2
BITMAP
00
00
00
30
48
48
48
30
00
00
ENDCHAR

STARTCHAR char112
ENCODING 112
SWIDTH 480 0
DWIDTH 5 0
BBX 5 10 0 -2
BITMAP
00
00
00
70
48
48
48
70
40
40
ENDCHAR

STARTCHAR char113
ENCODING 113
SWIDTH 480 0
DWIDTH 5 0
BBX 5 10 0 -2
BITMAP
00
00
00
38
48
48
48
38
08
08
ENDCHAR

STARTCHAR char114
ENCODING 114
SWIDTH 480 0
DWIDTH 5 0
BBX 5 10 0 -2
BITMAP
00
00
00
58
60
40
40
40
00
00
ENDCHAR

STARTCHAR char115
ENCODING 115
SWIDTH 480 0
DWIDTH 5 0
BBX 5 10 0 -2
BITMAP
00
00
00
38
40
30
08
70
00
00
ENDCHAR

STARTCHAR char116
ENCODING 116
SWIDTH 480 0
DWIDTH 5 0
BBX 5 10 0 -2
BITMAP
00
00
20
70
20
20
20
20
00
00
ENDCHAR

STARTCHAR char117
ENCODING 117
SWIDTH 480 0
DWIDTH 5 0
BBX 5 10 0 -2
BITMAP
00
00
00
48
48
48
48
38
00
00
ENDCHAR

STARTCHAR char118
ENCODING 118
SWIDTH 480 0
DWIDTH 5 0
BBX 5 10 0 -2
BITMAP
00
00
00
48
48
48
30
30
00
00
ENDCHAR

STARTCHAR char119
ENCODING 119
SWIDTH 480 0
DWIDTH 5 0
BBX 5 10 0 -2
BITMAP
00
00
00
48
48
58
78
48
00
00
ENDCHAR

STARTCHAR char120
ENCODING 120
SWIDTH 480 0
DWIDTH 5 0
BBX 5 10 0 -2
BITMAP
00
00
00
48
48
30
48
48
00
00
ENDCHAR

STARTCHAR char121
ENCODING 121
SWIDTH 480 0
DWIDTH 5 0
BBX 5 10 0 -2
BITMAP
00
00
00
48
48
48
48
38
08
30
ENDCHAR

STARTCHAR char122
ENCODING 122
SWIDTH 480 0
DWIDTH 5 0
BBX 5 10 0 -2
BITMAP
00
00
00
78
10
20
40
78
00
00
ENDCHAR

STARTCHAR char123
ENCODING 123
SWIDTH 480 0
DWIDTH 5 0
BBX 5 10 0 -2
BITMAP
00
10
20
20
60
20
20
20
10
00
ENDCHAR

STARTCHAR char124
ENCODING 124
SWIDTH 480 0
DWIDTH 5 0
BBX 5 10 0 -2
BITMAP
20
20
20
20
20
20
20
20
20
00
ENDCHAR

STARTCHAR char125
ENCODING 125
SWIDTH 480 0
DWIDTH 5 0
BBX 5 10 0 -2
BITMAP
00
20
10
10
18
10
10
10
20
00
ENDCHAR

STARTCHAR char126
ENCODING 126
SWIDTH 480 0
DWIDTH 5 0
BBX 5 10 0 -2
BITMAP
00
00
40
A8
10
00
00
00
00
00
ENDCHAR

STARTCHAR char127
ENCODING 127
SWIDTH 480 0
DWIDTH 5 0
BBX 5 10 0 -2
BITMAP
00
00
20
20
50
50
88
F8
00
00
ENDCHAR

STARTCHAR char174
ENCODING 174
SWIDTH 480 0
DWIDTH 5 0
BBX 5 10 0 -2
BITMAP
00
00
00
28
50
28
00
00
00
00
ENDCHAR

STARTCHAR char175
ENCODING 175
SWIDTH 480 0
DWIDTH 5 0
BBX 5 10 0 -2
BITMAP
00
00
00
50
28
50
00
00
00
00
ENDCHAR

STARTCHAR char176
ENCODING 176
SWIDTH 480 0
DWIDTH 5 0
BBX 5 10 0 -2
BITMAP
90
48
20
90
48
20
90
48
20
90
ENDCHAR

STARTCHAR char177
ENCODING 177
SWIDTH 480 0
DWIDTH 5 0
BBX 5 10 0 -2
BITMAP
50
A8
50
A8
50
A8
50
A8
50
A8
ENDCHAR

STARTCHAR char178
ENCODING 178
SWIDTH 480 0
DWIDTH 5 0
BBX 5 10 0 -2
BITMAP
D8
68
B0
D8
68
B0
D8
68
B0
D8
ENDCHAR

STARTCHAR char179
ENCODING 179
SWIDTH 480 0
DWIDTH 5 0
BBX 5 10 0 -2
BITMAP
20
20
20
20
20
20
20
20
20
20
ENDCHAR

STARTCHAR char180
ENCODING 180
SWIDTH 480 0
DWIDTH 5 0
BBX 5 10 0 -2
BITMAP
20
20
20
20
E0
20
20
20
20
20
ENDCHAR

STARTCHAR char181
ENCODING 181
SWIDTH 480 0
DWIDTH 5 0
BBX 5 10 0 -2
BITMAP
20
20
20
E0
20
E0
20
20
20
20
ENDCHAR

STARTCHAR char182
ENCODING 182
SWIDTH 480 0
DWIDTH 5 0
BBX 5 10 0 -2
BITMAP
50
50
50
50
D0
50
50
50
50
50
ENDCHAR

STARTCHAR char183
ENCODING 183
SWIDTH 480 0
DWIDTH 5 0
BBX 5 10 0 -2
BITMAP
00
00
00
00
F0
50
50
50
50
50
ENDCHAR

STARTCHAR char184
ENCODING 184
SWIDTH 480 0
DWIDTH 5 0
BBX 5 10 0 -2
BITMAP
00
00
00
E0
20
E0
20
20
20
20
ENDCHAR

STARTCHAR char185
ENCODING 185
SWIDTH 480 0
DWIDTH 5 0
BBX 5 10 0 -2
BITMAP
50
50
50
D0
10
D0
50
50
50
50
ENDCHAR

STARTCHAR char186
ENCODING 186
SWIDTH 480 0
DWIDTH 5 0
BBX 5 10 0 -2
BITMAP
50
50
50
50
50
50
50
50
50
50
ENDCHAR

STARTCHAR char187
ENCODING 187
SWIDTH 480 0
DWIDTH 5 0
BBX 5 10 0 -2
BITMAP
00
00
00
F0
10
D0
50
50
50
50
ENDCHAR

STARTCHAR char188
ENCODING 188
SWIDTH 480 0
DWIDTH 5 0
BBX 5 10 0 -2
BITMAP
50
50
50
D0
10
F0
00
00
00
00
ENDCHAR

STARTCHAR char189
ENCODING 189
SWIDTH 480 0
DWIDTH 5 0
BBX 5 10 0 -2
BITMAP
50
50
50
50
F0
00
00
00
00
00
ENDCHAR

STARTCHAR char190
ENCODING 190
SWIDTH 480 0
DWIDTH 5 0
BBX 5 10 0 -2
BITMAP
20
20
20
E0
20
E0
00
00
00
00
ENDCHAR

STARTCHAR char191
ENCODING 191
SWIDTH 480 0
DWIDTH 5 0
BBX 5 10 0 -2
BITMAP
00
00
00
00
E0
20
20
20
20
20
ENDCHAR

STARTCHAR char192
ENCODING 192
SWIDTH 480 0
DWIDTH 5 0
BBX 5 10 0 -2
BITMAP
20
20
20
20
38
00
00
00
00
00
ENDCHAR

STARTCHAR char193
ENCODING 193
SWIDTH 480 0
DWIDTH 5 0
BBX 5 10 0 -2
BITMAP
20
20
20
20
F8
00
00
00
00
00
ENDCHAR

STARTCHAR char194
ENCODING 194
SWIDTH 480 0
DWIDTH 5 0
BBX 5 10 0 -2
BITMAP
00
00
00
00
F8
20
20
20
20
20
ENDCHAR

STARTCHAR char195
ENCODING 195
SWIDTH 480 0
DWIDTH 5 0
BBX 5 10 0 -2
BITMAP
20
20
20
20
38
20
20
20
20
20
ENDCHAR

STARTCHAR char196
ENCODING 196
SWIDTH 480 0
DWIDTH 5 0
BBX 5 10 0 -2
BITMAP
00
00
00
00
F8
00
00
00
00
00
ENDCHAR

STARTCHAR char197
ENCODING 197
SWIDTH 480 0
DWIDTH 5 0
BBX 5 10 0 -2
BITMAP
20
20
20
20
F8
20
20
20
20
20
ENDCHAR

STARTCHAR char198
ENCODING 198
SWIDTH 480 0
DWIDTH 5 0
BBX 5 10 0 -2
BITMAP
20
20
20
38
20
38
20
20
20
20
ENDCHAR

STARTCHAR char199
ENCODING 199
SWIDTH 480 0
DWIDTH 5 0
BBX 5 10 0 -2
BITMAP
50
50
50
50
58
50
50
50
50
50
ENDCHAR

STARTCHAR char200
ENCODING 200
SWIDTH 480 0
DWIDTH 5 0
BBX 5 10 0 -2
BITMAP
50
50
50
58
40
78
00
00
00
00
ENDCHAR

STARTCHAR char201
ENCODING 201
SWIDTH 480 0
DWIDTH 5 0
BBX 5 10 0 -2
BITMAP
00
00
00
78
40
58
50
50
50
50
ENDCHAR

STARTCHAR char202
ENCODING 202
SWIDTH 480 0
DWIDTH 5 0
BBX 5 10 0 -2
BITMAP
50
50
50
D8
00
F8
00
00
00
00
ENDCHAR

STARTCHAR char203
ENCODING 203
SWIDTH 480 0
DWIDTH 5 0
BBX 5 10 0 -2
BITMAP
00
00
00
F8
00
D8
50
50
50
50
ENDCHAR

STARTCHAR char204
ENCODING 204
SWIDTH 480 0
DWIDTH 5 0
BBX 5 10 0 -2
BITMAP
50
50
50
58
40
58
50
50
50
50
ENDCHAR

STARTCHAR char205
ENCODING 205
SWIDTH 480 0
DWIDTH 5 0
BBX 5 10 0 -2
BITMAP
00
00
00
F8
00
F8
00
00
00
00
ENDCHAR

STARTCHAR char206
ENCODING 206
SWIDTH 480 0
DWIDTH 5 0
BBX 5 10 0 -2
BITMAP
50
50
50
D8
00
D8
50
50
50
50
ENDCHAR

STARTCHAR char207
ENCODING 207
SWIDTH 480 0
DWIDTH 5 0
BBX 5 10 0 -2
BITMAP
20
20
20
F8
00
F8
00
00
00
00
ENDCHAR

STARTCHAR char208
ENCODING 208
SWIDTH 480 0
DWIDTH 5 0
BBX 5 10 0 -2
BITMAP
50
50
50
50
F8
00
00
00
00
00
ENDCHAR

STARTCHAR char209
ENCODING 209
SWIDTH 480 0
DWIDTH 5 0
BBX 5 10 0 -2
BITMAP
00
00
00
F8
00
F8
20
20
20
20
ENDCHAR

STARTCHAR char210
ENCODING 210
SWIDTH 480 0
DWIDTH 5 0
BBX 5 10 0 -2
BITMAP
00
00
00
00
F8
50
50
50
50
50
ENDCHAR

STARTCHAR char211
ENCODING 211
SWIDTH 480 0
DWIDTH 5 0
BBX 5 10 0 -2
BITMAP
50
50
50
50
78
00
00
00
00
00
ENDCHAR

STARTCHAR char212
ENCODING 212
SWIDTH 480 0
DWIDTH 5 0
BBX 5 10 0 -2
BITMAP
20
20
20
38
20
38
00
00
00
00
ENDCHAR

STARTCHAR char213
ENCODING 213
SWIDTH 480 0
DWIDTH 5 0
BBX 5 10 0 -2
BITMAP
00
00
00
38
20
38
20
20
20
20
ENDCHAR

STARTCHAR char214
ENCODING 214
SWIDTH 480 0
DWIDTH 5 0
BBX 5 10 0 -2
BITMAP
00
00
00
00
78
50
50
50
50
50
ENDCHAR

STARTCHAR char215
ENCODING 215
SWIDTH 480 0
DWIDTH 5 0
BBX 5 10 0 -2
BITMAP
50
50
50
50
F8
50
50
50
50
50
ENDCHAR

STARTCHAR char216
ENCODING 216
SWIDTH 480 0
DWIDTH 5 0
BBX 5 10 0 -2
BITMAP
20
20
20
F8
20
F8
20
20
20
20
ENDCHAR

STARTCHAR char217
ENCODING 217
SWIDTH 480 0
DWIDTH 5 0
BBX 5 10 0 -2
BITMAP
20
20
20
20
E0
00
00
00
00
00
ENDCHAR

STARTCHAR char218
ENCODING 218
SWIDTH 480 0
DWIDTH 5 0
BBX 5 10 0 -2
BITMAP
00
00
00
00
38
20
20
20
20
20
ENDCHAR

STARTCHAR char219
ENCODING 219
SWIDTH 480 0
DWIDTH 5 0
BBX 5 10 0 -2
BITMAP
F8
F8
F8
F8
F8
F8
F8
F8
F8
F8
ENDCHAR

STARTCHAR char220
ENCODING 220
SWIDTH 480 0
DWIDTH 5 0
BBX 5 10 0 -2
BITMAP
00
00
00
00
F8
F8
F8
F8
F8
F8
ENDCHAR

STARTCHAR char221
ENCODING 221
SWIDTH 480 0
DWIDTH 5 0
BBX 5 10 0 -2
BITMAP
E0
E0
E0
E0
E0
E0
E0
E0
E0
E0
ENDCHAR

STARTCHAR char222
ENCODING 222
SWIDTH 480 0
DWIDTH 5 0
BBX 5 10 0 -2
BITMAP
18
18
18
18
18
18
18
18
18
18
ENDCHAR

STARTCHAR char223
ENCODING 223
SWIDTH 480 0
DWIDTH 5 0
BBX 5 10 0 -2
BITMAP
F8
F8
F8
F8
F8
00
00
00
00
00
ENDCHAR

STARTCHAR char224
ENCODING 224
SWIDTH 480 0
DWIDTH 5 0
BBX 5 10 0 -2
BITMAP
00
00
00
28
50
50
50
28
00
00
ENDCHAR

STARTCHAR char225
ENCODING 225
SWIDTH 480 0
DWIDTH 5 0
BBX 5 10 0 -2
BITMAP
00
30
48
50
48
50
40
40
00
00
ENDCHAR

STARTCHAR char226
ENCODING 226
SWIDTH 480 0
DWIDTH 5 0
BBX 5 10 0 -2
BITMAP
00
78
48
40
40
40
40
40
00
00
ENDCHAR

STARTCHAR char227
ENCODING 227
SWIDTH 480 0
DWIDTH 5 0
BBX 5 10 0 -2
BITMAP
00
00
F8
50
50
50
50
00
00
00
ENDCHAR

STARTCHAR char228
ENCODING 228
SWIDTH 480 0
DWIDTH 5 0
BBX 5 10 0 -2
BITMAP
00
78
40
20
10
20
40
78
00
00
ENDCHAR

STARTCHAR char229
ENCODING 229
SWIDTH 480 0
DWIDTH 5 0
BBX 5 10 0 -2
BITMAP
00
00
00
38
50
50
50
20
00
00
ENDCHAR

STARTCHAR char230
ENCODING 230
SWIDTH 480 0
DWIDTH 5 0
BBX 5 10 0 -2
BITMAP
00
28
28
28
28
30
20
40
00
00
ENDCHAR

STARTCHAR char231
ENCODING 231
SWIDTH 480 0
DWIDTH 5 0
BBX 5 10 0 -2
BITMAP
00
00
28
50
10
10
10
10
00
00
ENDCHAR

STARTCHAR char232
ENCODING 232
SWIDTH 480 0
DWIDTH 5 0
BBX 5 10 0 -2
BITMAP
F8
20
70
88
88
70
20
F8
00
00
ENDCHAR

STARTCHAR char233
ENCODING 233
SWIDTH 480 0
DWIDTH 5 0
BBX 5 10 0 -2
BITMAP
00
30
48
48
78
48
48
30
00
00
ENDCHAR

STARTCHAR char234
ENCODING 234
SWIDTH 480 0
DWIDTH 5 0
BBX 5 10 0 -2
BITMAP
00
00
70
88
88
50
50
D8
00
00
ENDCHAR

STARTCHAR char235
ENCODING 235
SWIDTH 480 0
DWIDTH 5 0
BBX 5 10 0 -2
BITMAP
00
30
40
20
30
48
48
30
00
00
ENDCHAR

STARTCHAR char236
ENCODING 236
SWIDTH 480 0
DWIDTH 5 0
BBX 5 10 0 -2
BITMAP
00
00
00
70
A8
A8
A8
70
00
00
ENDCHAR

STARTCHAR char237
ENCODING 237
SWIDTH 480 0
DWIDTH 5 0
BBX 5 10 0 -2
BITMAP
08
08
70
B8
A8
E8
70
80
80
00
ENDCHAR

STARTCHAR char238
ENCODING 238
SWIDTH 480 0
DWIDTH 5 0
BBX 5 10 0 -2
BITMAP
00
18
20
40
78
40
20
18
00
00
ENDCHAR

STARTCHAR char239
ENCODING 239
SWIDTH 480 0
DWIDTH 5 0
BBX 5 10 0 -2
BITMAP
00
30
48
48
48
48
48
48
00
00
ENDCHAR

STARTCHAR char240
ENCODING 240
SWIDTH 480 0
DWIDTH 5 0
BBX 5 10 0 -2
BITMAP
00
00
78
00
78
00
78
00
00
00
ENDCHAR

STARTCHAR char241
ENCODING 241
SWIDTH 480 0
DWIDTH 5 0
BBX 5 10 0 -2
BITMAP
00
00
20
70
20
00
70
00
00
00
ENDCHAR

STARTCHAR char242
ENCODING 242
SWIDTH 480 0
DWIDTH 5 0
BBX 5 10 0 -2
BITMAP
00
20
10
08
10
20
00
38
00
00
ENDCHAR

STARTCHAR char243
ENCODING 243
SWIDTH 480 0
DWIDTH 5 0
BBX 5 10 0 -2
BITMAP
00
08
10
20
10
08
00
38
00
00
ENDCHAR

STARTCHAR char244
ENCODING 244
SWIDTH 480 0
DWIDTH 5 0
BBX 5 10 0 -2
BITMAP
20
50
50
40
40
40
40
40
00
00
ENDCHAR

STARTCHAR char245
ENCODING 245
SWIDTH 480 0
DWIDTH 5 0
BBX 5 10 0 -2
BITMAP
40
40
40
40
40
50
50
20
00
00
ENDCHAR

STARTCHAR char246
ENCODING 246
SWIDTH 480 0
DWIDTH 5 0
BBX 5 10 0 -2
BITMAP
00
20
20
00
F8
00
20
20
00
00
ENDCHAR

STARTCHAR char247
ENCODING 247
SWIDTH 480 0
DWIDTH 5 0
BBX 5 10 0 -2
BITMAP
00
00
28
50
00
28
50
00
00
00
ENDCHAR

STARTCHAR char249
ENCODING 249
SWIDTH 480 0
DWIDTH 5 0
BBX 5 10 0 -2
BITMAP
00
00
00
00
00
30
30
00
00
00
ENDCHAR

STARTCHAR char250
ENCODING 250
SWIDTH 480 0
DWIDTH 5 0
BBX 5 10 0 -2
BITMAP
00
00
00
00
00
00
30
00
00
00
ENDCHAR

STARTCHAR char251
ENCODING 251
SWIDTH 480 0
DWIDTH 5 0
BBX 5 10 0 -2
BITMAP
00
38
20
20
20
A0
60
20
00
00
ENDCHAR

STARTCHAR char252
ENCODING 252
SWIDTH 480 0
DWIDTH 5 0
BBX 5 10 0 -2
BITMAP
00
50
68
48
48
00
00
00
00
00
ENDCHAR

STARTCHAR char253
ENCODING 253
SWIDTH 480 0
DWIDTH 5 0
BBX 5 10 0 -2
BITMAP
00
60
10
20
70
00
00
00
00
00
ENDCHAR

STARTCHAR char254
ENCODING 254
SWIDTH 480 0
DWIDTH 5 0
BBX 5 10 0 -2
BITMAP
00
00
00
70
70
70
70
00
00
00
ENDCHAR

ENDFONT
