/* XPM */
static char * urxvt_16x16_xpm[] = {
"16 16 74 1",
" 	c None",
".	c #A5AABD",
"+	c #949AB5",
"@	c #848EAD",
"#	c #63719C",
"$	c #738AAD",
"%	c #8C9EC6",
"&	c #A5B6D6",
"*	c #BDCFEF",
"=	c #D6DFE7",
"-	c #CED7DE",
";	c #C6D3DE",
">	c #C6CFDE",
",	c #A5A2DE",
"'	c #7B7DAD",
")	c #39558C",
"!	c #5269A5",
"~	c #5A79B5",
"{	c #7B9ED6",
"]	c #ADC7EF",
"^	c #D6D3CE",
"/	c #A5A6A5",
"(	c #9CA2AD",
"_	c #BDBAB5",
":	c #8C8E8C",
"<	c #ADB6BD",
"[	c #7B86A5",
"}	c #526184",
"|	c #424D73",
"1	c #103073",
"2	c #315594",
"3	c #A5C7EF",
"4	c #94A6B5",
"5	c #ADAEB5",
"6	c #A5AAB5",
"7	c #A5B2C6",
"8	c #EFEFEF",
"9	c #FFFBFF",
"0	c #F7F3F7",
"a	c #EFEBEF",
"b	c #949294",
"c	c #B5B2B5",
"d	c #F7F3EF",
"e	c #9C9E9C",
"f	c #949694",
"g	c #CECFCE",
"h	c #D6D7D6",
"i	c #CECBCE",
"j	c #C6C3C6",
"k	c #C6C7C6",
"l	c #D6D3D6",
"m	c #737173",
"n	c #DEDBDE",
"o	c #FFFFFF",
"p	c #B5B6B5",
"q	c #F7F7F7",
"r	c #4A494A",
"s	c #A5A2A5",
"t	c #ADAAAD",
"u	c #BDBEBD",
"v	c #E7E3E7",
"w	c #393C39",
"x	c #000000",
"y	c #393839",
"z	c #949A94",
"A	c #DED7EF",
"B	c #A5A2FF",
"C	c #9C9EFF",
"D	c #F7F7FF",
"E	c #848684",
"F	c #C6BEC6",
"G	c #BDBABD",
"H	c #E7DFDE",
"I	c #EFE7E7",
"                ",
".+@#$%&*==-=;==>",
"+,')!~{]^^//(_:<",
"[}|12~{3((((4567",
"8999999990999abc",
"defghijklmnoo8fp",
"deoqr8ssotooo8:u",
"dgolqinvothoo8:u",
"dooooooofmboo8:u",
"doogaooowxyoo8zj",
"ABCDEhoowxyoo8FG",
"doogaooowxyoo8cp",
"dooooooot:/oo8tG",
"HIIIIIIIIIIIInck",
"                ",
"                "};
